<svg width="26" height="27" viewBox="0 0 26 27" fill="none" xmlns="http://www.w3.org/2000/svg">
<g id="&#240;&#159;&#166;&#134; icon &#34;mail open love&#34;">
<g id="Group">
<path id="Vector" d="M4.60052 7.83136L3.13795 8.8064C2.0895 9.50537 1.56526 9.85486 1.28116 10.3879C0.997064 10.9208 0.999175 11.5473 1.00338 12.8001C1.00845 14.3084 1.02247 15.8452 1.06129 17.4003C1.15338 21.0898 1.19943 22.9346 2.55591 24.291C3.91239 25.6476 5.78206 25.6943 9.5214 25.7878C11.8477 25.8459 14.1534 25.8459 16.4796 25.7878C20.2191 25.6943 22.0887 25.6476 23.4451 24.291C24.8016 22.9346 24.8477 21.0898 24.9397 17.4003C24.9786 15.8452 24.9925 14.3084 24.9977 12.8001C25.0019 11.5473 25.0039 10.9208 24.7199 10.3879C24.4357 9.85486 23.9116 9.50537 22.863 8.8064L21.4005 7.83136" stroke="#474747" stroke-width="2" stroke-linejoin="round"/>
<path id="Vector_2" d="M1 11.4313L9.29562 16.4087C11.1004 17.4916 12.0028 18.033 13 18.033C13.9972 18.033 14.8996 17.4916 16.7044 16.4087L25 11.4313" stroke="#474747" stroke-width="2" stroke-linejoin="round"/>
<path id="Vector_3" d="M4.59985 13.8314V6.63136C4.59985 4.36862 4.59985 3.23724 5.3028 2.53431C6.00574 1.83136 7.13711 1.83136 9.39985 1.83136H16.5999C18.8626 1.83136 19.9939 1.83136 20.6969 2.53431C21.3999 3.23724 21.3999 4.36862 21.3999 6.63136V13.8314" stroke="#474747" stroke-width="2"/>
<path id="Vector_4" d="M10.3134 6.96273C11.2787 6.41443 12.1214 6.63538 12.6275 6.98735C12.835 7.13167 12.9388 7.20382 12.9999 7.20382C13.061 7.20382 13.1648 7.13167 13.3723 6.98735C13.8784 6.63538 14.7211 6.41443 15.6865 6.96273C16.9534 7.68233 17.2401 10.0563 14.3176 12.0592C13.7611 12.4407 13.4828 12.6314 12.9999 12.6314C12.517 12.6314 12.2387 12.4407 11.6822 12.0592C8.75972 10.0563 9.0464 7.68233 10.3134 6.96273Z" fill="#FF5858" stroke="#474747" stroke-width="2" stroke-linecap="round"/>
</g>
</g>
</svg>
