<svg width="26" height="22" viewBox="0 0 26 22" fill="none" xmlns="http://www.w3.org/2000/svg">
<g id="&#240;&#159;&#166;&#134; icon &#34;group&#34;">
<path id="Vector" d="M1 20.1041V19.0132C1 14.7957 4.41892 11.3768 8.63636 11.3768C12.8538 11.3768 16.2727 14.7957 16.2727 19.0132V20.1041" stroke="#474747" stroke-width="2" stroke-linecap="round"/>
<path id="Vector_2" d="M14.0911 13.5587C14.0911 10.5462 16.5332 8.10413 19.5456 8.10413C22.558 8.10413 25.0002 10.5462 25.0002 13.5587V14.1041" stroke="#474747" stroke-width="2" stroke-linecap="round"/>
<path id="Vector_3" d="M8.63634 11.3769C11.0463 11.3769 13 9.42316 13 7.01323C13 4.60326 11.0463 2.6496 8.63634 2.6496C6.22637 2.6496 4.27271 4.60326 4.27271 7.01323C4.27271 9.42316 6.22637 11.3769 8.63634 11.3769Z" stroke="#474747" stroke-width="2" stroke-linecap="round" stroke-linejoin="round"/>
<path id="Vector_4" d="M19.5454 8.10411C21.353 8.10411 22.8182 6.63885 22.8182 4.83138C22.8182 3.02391 21.353 1.55865 19.5454 1.55865C17.7379 1.55865 16.2727 3.02391 16.2727 4.83138C16.2727 6.63885 17.7379 8.10411 19.5454 8.10411Z" stroke="#474747" stroke-width="2" stroke-linecap="round" stroke-linejoin="round"/>
</g>
</svg>
