<svg width="24" height="25" viewBox="0 0 24 25" fill="none" xmlns="http://www.w3.org/2000/svg">
<g id="&#240;&#159;&#166;&#134; icon &#34;circle help&#34;">
<g id="Group">
<path id="Vector" d="M12 2.54703C9.45392 2.54703 7.01212 3.55846 5.21178 5.35881C3.41143 7.15916 2.4 9.60096 2.4 12.147C2.4 14.6931 3.41143 17.1349 5.21178 18.9353C7.01212 20.7356 9.45392 21.747 12 21.747C14.5461 21.747 16.9879 20.7356 18.7882 18.9353C20.5886 17.1349 21.6 14.6931 21.6 12.147C21.6 9.60096 20.5886 7.15916 18.7882 5.35881C16.9879 3.55846 14.5461 2.54703 12 2.54703ZM0 12.147C0 5.51943 5.3724 0.147034 12 0.147034C18.6276 0.147034 24 5.51943 24 12.147C24 18.7746 18.6276 24.147 12 24.147C5.3724 24.147 0 18.7746 0 12.147Z" fill="#474747"/>
<path id="Vector_2" d="M12 14.547C11.6817 14.547 11.3765 14.4206 11.1514 14.1955C10.9264 13.9705 10.8 13.6653 10.8 13.347V12.147C10.8 11.8288 10.9264 11.5235 11.1514 11.2985C11.3765 11.0734 11.6817 10.947 12 10.947C12.3182 10.947 12.6234 11.0734 12.8485 11.2985C13.0735 11.5235 13.2 11.8288 13.2 12.147V13.347C13.2 13.6653 13.0735 13.9705 12.8485 14.1955C12.6234 14.4206 12.3182 14.547 12 14.547ZM10.2 17.547C10.2 17.0696 10.3896 16.6118 10.7272 16.2742C11.0647 15.9367 11.5226 15.747 12 15.747C12.4773 15.747 12.9352 15.9367 13.2727 16.2742C13.6103 16.6118 13.8 17.0696 13.8 17.547C13.8 18.0244 13.6103 18.4822 13.2727 18.8198C12.9352 19.1574 12.4773 19.347 12 19.347C11.5226 19.347 11.0647 19.1574 10.7272 18.8198C10.3896 18.4822 10.2 18.0244 10.2 17.547Z" fill="#474747"/>
<path id="Vector_3" d="M12.468 7.12022C11.3196 7.06622 10.356 7.70822 10.1832 8.74382C10.1227 9.04991 9.94546 9.32042 9.68893 9.49801C9.4324 9.67559 9.11679 9.74628 8.80902 9.69509C8.50125 9.6439 8.22552 9.47485 8.04029 9.22379C7.85505 8.97273 7.77489 8.65939 7.81678 8.35022C8.24398 5.78702 10.5804 4.62782 12.582 4.72382C13.6068 4.77182 14.6616 5.14022 15.4728 5.89862C16.3044 6.67502 16.8 7.78862 16.8 9.14702C16.8 10.6962 16.1904 11.8458 15.1404 12.5454C14.1768 13.1874 12.9948 13.347 12 13.347C11.6817 13.347 11.3765 13.2206 11.1515 12.9955C10.9264 12.7705 10.8 12.4653 10.8 12.147C10.8 11.8288 10.9264 11.5235 11.1515 11.2985C11.3765 11.0734 11.6817 10.947 12 10.947C12.804 10.947 13.4232 10.8066 13.8096 10.5486C14.1096 10.3482 14.4 9.99662 14.4 9.14702C14.4 8.40542 14.1456 7.94342 13.8336 7.65182C13.5012 7.34102 13.0176 7.14782 12.468 7.12022Z" fill="#474747"/>
</g>
</g>
</svg>
