<svg width="26" height="26" viewBox="0 0 26 26" fill="none" xmlns="http://www.w3.org/2000/svg">
<g id="&#240;&#159;&#166;&#134; icon &#34;home simple door&#34;">
<path id="Vector" d="M9 24.097H6.33333C3.38781 24.097 1 21.7091 1 18.7636V10.3738C1 8.50879 1.97415 6.77929 3.56905 5.81268L10.2357 1.77228C11.9348 0.742573 14.0652 0.742573 15.7643 1.77228L22.4309 5.81268C24.0259 6.77929 25 8.50879 25 10.3738V18.7636C25 21.7091 22.6121 24.097 19.6667 24.097H17M9 24.097V18.7636C9 16.5544 10.7908 14.7636 13 14.7636C15.2092 14.7636 17 16.5544 17 18.7636V24.097M9 24.097H17" stroke="white" stroke-width="2" stroke-linecap="round" stroke-linejoin="round"/>
</g>
</svg>
