<svg width="24" height="24" viewBox="0 0 24 24" fill="none" xmlns="http://www.w3.org/2000/svg">
<g id="&#240;&#159;&#166;&#134; icon &#34;wallet money&#34;">
<g id="Group">
<path id="Vector" d="M6.61618 23.147C3.96063 23.147 1.78491 21.2167 1.78491 18.8401V16.5639C1.78491 16.1065 2.16428 15.7271 2.62174 15.7271C3.07921 15.7271 3.45858 16.1065 3.45858 16.5639C3.45858 17.9587 4.80862 19.0075 6.61618 19.0075C8.42374 19.0075 9.77385 17.9587 9.77385 16.5639C9.77385 16.1065 10.1532 15.7271 10.6107 15.7271C11.0681 15.7271 11.4475 16.1065 11.4475 16.5639V18.8401C11.4475 21.2167 9.28289 23.147 6.61618 23.147ZM3.74862 19.9336C4.23957 20.8485 5.3442 21.4734 6.61618 21.4734C7.88817 21.4734 8.9928 20.8374 9.48374 19.9336C8.69154 20.4134 7.70964 20.6923 6.61618 20.6923C5.52272 20.6923 4.54083 20.4134 3.74862 19.9336Z" fill="#474747"/>
<path id="Vector_2" d="M6.61618 17.6237C4.78631 17.6237 3.14615 16.7869 2.33163 15.4591C1.97458 14.8789 1.78491 14.1983 1.78491 13.5065C1.78491 12.3349 2.29816 11.2415 3.23541 10.427C5.04297 8.84257 8.15597 8.84263 9.97467 10.4159C10.9119 11.2416 11.4363 12.3349 11.4363 13.5065C11.4363 14.1983 11.2467 14.8789 10.8896 15.4591C10.0862 16.7869 8.44606 17.6237 6.61618 17.6237ZM6.61618 10.8733C5.74588 10.8733 4.94254 11.1634 4.34002 11.6878C3.77097 12.1787 3.45858 12.8259 3.45858 13.5065C3.45858 13.897 3.55895 14.2542 3.75979 14.5889C4.27305 15.4369 5.36651 15.9612 6.61618 15.9612C7.86585 15.9612 8.9593 15.4369 9.4614 14.6001C9.66224 14.2765 9.76268 13.9082 9.76268 13.5177C9.76268 12.837 9.45029 12.1899 8.88124 11.6878C8.28988 11.1634 7.48649 10.8733 6.61618 10.8733Z" fill="#474747"/>
<path id="Vector_3" d="M6.61618 20.6922C3.86021 20.6922 1.78491 18.9181 1.78491 16.575V13.5066C1.78491 11.13 3.94947 9.19971 6.61618 9.19971C7.87701 9.19971 9.08207 9.63486 9.98583 10.4159C10.9231 11.2416 11.4475 12.335 11.4475 13.5066V16.575C11.4475 18.9181 9.37215 20.6922 6.61618 20.6922ZM6.61618 10.8734C4.87557 10.8734 3.45858 12.0561 3.45858 13.5066V16.575C3.45858 17.9697 4.80862 19.0185 6.61618 19.0185C8.42374 19.0185 9.77385 17.9697 9.77385 16.575V13.5066C9.77385 12.826 9.46146 12.1788 8.89241 11.6767C8.28989 11.1635 7.48649 10.8734 6.61618 10.8734Z" fill="#474747"/>
<path id="Vector_4" d="M19.8605 14.2767C18.1757 14.2767 16.7475 13.027 16.6136 11.4203C16.5243 10.4942 16.859 9.59041 17.5285 8.9321C18.0864 8.35188 18.8786 8.02832 19.7154 8.02832H22.0474C23.152 8.06179 24 8.9321 24 10.0032V12.3017C24 13.3729 23.152 14.2432 22.0809 14.2767H19.8605ZM22.0139 9.70199H19.7266C19.3361 9.70199 18.979 9.84704 18.7224 10.1148C18.3988 10.4272 18.2426 10.8512 18.2872 11.2752C18.343 12.0116 19.0571 12.603 19.8605 12.603H22.0474C22.1925 12.603 22.3263 12.4691 22.3263 12.3017V10.0032C22.3263 9.83588 22.1925 9.71314 22.0139 9.70199Z" fill="#474747"/>
<path id="Vector_5" d="M16.4688 21.4732H13.6794C13.2219 21.4732 12.8426 21.0939 12.8426 20.6364C12.8426 20.1789 13.2219 19.7996 13.6794 19.7996H16.4688C19.3475 19.7996 21.2109 17.9362 21.2109 15.0575V14.2765H19.8608C18.176 14.2765 16.7478 13.0268 16.6139 11.4201C16.5246 10.494 16.8595 9.59021 17.5289 8.9319C18.0868 8.35171 18.8789 8.02813 19.7157 8.02813H21.1997V7.24708C21.1997 4.63616 19.6712 2.83974 17.1942 2.54963C16.9264 2.505 16.692 2.50503 16.4577 2.50503H6.41572C6.14793 2.50503 5.89129 2.52733 5.63466 2.5608C3.17995 2.87322 1.67367 4.65848 1.67367 7.24708V9.47863C1.67367 9.9361 1.2943 10.3155 0.836833 10.3155C0.379364 10.3155 0 9.9361 0 9.47863V7.24708C0 3.81048 2.12002 1.32231 5.41156 0.909475C5.71282 0.864844 6.05867 0.83136 6.41572 0.83136H16.4577C16.7255 0.83136 17.0714 0.842518 17.4284 0.898306C20.7199 1.27767 22.8734 3.77701 22.8734 7.24708V8.86497C22.8734 9.32242 22.494 9.70179 22.0366 9.70179H19.7157C19.3252 9.70179 18.9683 9.84684 18.7117 10.1146C18.3881 10.427 18.2318 10.851 18.2764 11.275C18.3322 12.0114 19.0464 12.6028 19.8498 12.6028H22.0477C22.5052 12.6028 22.8846 12.9822 22.8846 13.4396V15.0575C22.8846 18.8958 20.3071 21.4732 16.4688 21.4732Z" fill="#474747"/>
</g>
</g>
</svg>
