<svg width="26" height="25" viewBox="0 0 26 25" fill="none" xmlns="http://www.w3.org/2000/svg">
<g id="&#240;&#159;&#166;&#134; icon &#34;Wedding&#34;">
<g id="Group">
<path id="Vector" fill-rule="evenodd" clip-rule="evenodd" d="M9.53299 1.21123C8.31981 1.67693 7.86486 3.43132 8.51684 5.12977C9.16809 6.82635 11.8234 8.06661 11.8234 8.06661C11.8234 8.06661 14.6118 6.82635 15.2631 5.12977C15.9151 3.43132 15.4601 1.67693 14.2469 1.21123C13.4833 0.918115 12.6014 1.2054 11.89 1.88209C11.89 1.88209 10.2966 0.918115 9.53299 1.21123Z" fill="#FF5858" stroke="#474747" stroke-width="2" stroke-linecap="round" stroke-linejoin="round"/>
<path id="Vector_2" d="M13.6703 22.8033C14.7858 23.4568 16.0844 23.8313 17.4706 23.8313C21.629 23.8313 25 20.4603 25 16.3019C25 12.1436 21.629 8.77252 17.4706 8.77252C13.3122 8.77252 9.94116 12.1436 9.94116 16.3019C9.94116 17.8215 10.3913 19.2359 11.1655 20.4191" stroke="#474747" stroke-width="2" stroke-linecap="round" stroke-linejoin="round"/>
<path id="Vector_3" d="M10.4895 10.2541C9.67051 9.90618 8.7695 9.71368 7.82353 9.71368C4.055 9.71368 1 12.7687 1 16.5372C1 20.3057 4.055 23.3607 7.82353 23.3607C11.5921 23.3607 14.6471 20.3057 14.6471 16.5372C14.6471 14.9746 14.1218 13.5347 13.2382 12.3843" stroke="#474747" stroke-width="2" stroke-linecap="round" stroke-linejoin="round"/>
</g>
</g>
</svg>
